<?xml version="1.0" standalone="no"?>
<!DOCTYPE svg PUBLIC "-//W3C//DTD SVG 20010904//EN"
 "http://www.w3.org/TR/2001/REC-SVG-20010904/DTD/svg10.dtd">
<svg version="1.0" xmlns="http://www.w3.org/2000/svg"
 width="128.000000pt" height="128.000000pt" viewBox="0 0 128.000000 128.000000"
 preserveAspectRatio="xMidYMid meet">

<g transform="translate(0.000000,128.000000) scale(0.100000,-0.100000)"
fill="#000000" stroke="none">
<path d="M505 1264 c-244 -52 -438 -249 -489 -497 -20 -96 -20 -158 0 -254 52
-252 246 -446 496 -497 97 -20 159 -20 256 0 250 51 444 245 496 497 20 96 20
158 0 254 -72 349 -410 571 -759 497z m518 -331 c2 -5 -18 -115 -44 -247 -70
-350 -66 -346 -347 -346 -169 0 -181 1 -212 23 -19 12 -43 37 -54 56 -19 33
-118 497 -109 514 2 4 175 7 383 7 208 0 381 -3 383 -7z"/>
<path d="M283 898 c3 -13 24 -117 47 -233 43 -216 53 -246 98 -280 25 -18 43
-20 214 -20 185 0 187 0 213 25 44 41 55 74 101 304 24 121 44 222 44 223 0 2
-162 3 -361 3 l-361 0 5 -22z m216 -70 c14 -25 14 -29 -7 -58 -23 -31 -23 -32
-6 -82 20 -63 80 -124 127 -133 76 -15 155 48 187 148 11 35 10 41 -9 61 -25
27 -27 53 -4 78 33 36 93 13 93 -37 0 -21 -18 -48 -37 -57 -5 -1 -16 -29 -27
-62 -44 -143 -178 -199 -278 -116 -38 32 -88 119 -88 155 0 14 -10 26 -25 33
-20 9 -25 19 -25 46 0 60 70 77 99 24z m-95 -227 c26 -147 48 -171 158 -179
85 -6 89 -22 6 -22 -75 0 -125 22 -150 66 -19 33 -60 223 -51 237 11 18 21
-11 37 -102z"/>
<path d="M430 826 c-7 -9 -9 -23 -5 -33 6 -16 8 -15 17 7 l9 25 15 -25 14 -25
-2 30 c-3 34 -28 44 -48 21z"/>
<path d="M807 833 c-4 -3 -7 -18 -7 -32 l1 -26 14 25 14 25 9 -25 c9 -22 11
-23 17 -7 12 28 -27 61 -48 40z"/>
</g>
</svg>
